<svg xmlns="http://www.w3.org/2000/svg" viewBox="0 0 1024 1024">
  <defs>
    <linearGradient id="bg" x1="0" y1="0" x2="1" y2="1">
      <stop offset="0" stop-color="#06172b"/>
      <stop offset="0.55" stop-color="#07111f"/>
      <stop offset="1" stop-color="#020617"/>
    </linearGradient>
    <linearGradient id="green" x1="0" y1="1" x2="1" y2="0">
      <stop offset="0" stop-color="#22c55e"/>
      <stop offset="1" stop-color="#4ade80"/>
    </linearGradient>
    <linearGradient id="blue" x1="0" y1="0" x2="1" y2="0">
      <stop offset="0" stop-color="#0ea5e9"/>
      <stop offset="1" stop-color="#38bdf8"/>
    </linearGradient>
    <filter id="shadow" x="-20%" y="-20%" width="140%" height="140%">
      <feDropShadow dx="0" dy="18" stdDeviation="20" flood-color="#000" flood-opacity="0.35"/>
    </filter>
  </defs>
  <rect width="1024" height="1024" rx="210" fill="url(#bg)"/>
  <g filter="url(#shadow)">
    <path d="M185 742 C310 797 457 800 588 745 C692 702 773 629 888 623 C782 650 705 716 594 766 C446 834 286 817 185 742Z" fill="url(#blue)"/>
    <rect x="259" y="548" width="94" height="235" rx="14" fill="#ffffff"/>
    <rect x="397" y="478" width="94" height="303" rx="14" fill="#ffffff"/>
    <rect x="535" y="405" width="94" height="375" rx="14" fill="#ffffff"/>
    <rect x="673" y="326" width="94" height="452" rx="14" fill="#ffffff"/>
    <path d="M271 451 L438 318 L528 386 L769 146" stroke="url(#green)" stroke-width="44" stroke-linecap="round" stroke-linejoin="round" fill="none"/>
    <path d="M716 133 L852 92 L820 229 Z" fill="url(#green)"/>
  </g>
</svg>
